<svg xmlns="http://www.w3.org/2000/svg" version="1.1" xmlns:xlink="http://www.w3.org/1999/xlink" xmlns:svgjs="http://svgjs.dev/svgjs" width="2000" height="1999" viewBox="0 0 2000 1999"><g transform="matrix(1,0,0,1,-0.431486880466764,-0.4312711370263287)"><svg viewBox="0 0 343 343" data-background-color="#fffff5" preserveAspectRatio="xMidYMid meet" height="1999" width="2000" xmlns="http://www.w3.org/2000/svg" xmlns:xlink="http://www.w3.org/1999/xlink"><g id="tight-bounds" transform="matrix(1,0,0,1,0.0740000000000407,0.07400000000001228)"><svg viewBox="0 0 342.85155851775386 342.85155851775386" height="342.85155851775386" width="342.85155851775386"><g><svg></svg></g><g><svg viewBox="0 0 342.85155851775386 342.85155851775386" height="342.85155851775386" width="342.85155851775386"><g><path d="M0 171.426c0-94.676 76.75-171.426 171.426-171.426 94.676 0 171.426 76.75 171.426 171.426 0 94.676-76.75 171.426-171.426 171.426-94.676 0-171.426-76.75-171.426-171.426zM171.426 338.263c92.142 0 166.837-74.696 166.837-166.837 0-92.142-74.696-166.837-166.837-166.837-92.142 0-166.837 74.696-166.837 166.837 0 92.142 74.696 166.837 166.837 166.837z" data-fill-palette-color="tertiary" fill="#000000" stroke="transparent"></path><ellipse rx="164.56874808852186" ry="164.56874808852186" cx="171.42577925887693" cy="171.42577925887693" fill="#000000" stroke="transparent" stroke-width="0" fill-opacity="1" data-fill-palette-color="tertiary"></ellipse></g><g transform="matrix(1,0,0,1,64.84655864529837,104.82062087367814)"><svg viewBox="0 0 213.1584412271571 133.21031677039758" height="133.21031677039758" width="213.1584412271571"><g><svg viewBox="0 0 213.1584412271571 133.21031677039758" height="133.21031677039758" width="213.1584412271571"><g><svg viewBox="0 0 213.1584412271571 133.21031677039758" height="133.21031677039758" width="213.1584412271571"><g transform="matrix(1,0,0,1,0,82.32931989696932)"><svg viewBox="0 0 213.1584412271571 50.880996873428266" height="50.880996873428266" width="213.1584412271571"><g id="textblocktransform"><svg viewBox="0 0 213.1584412271571 50.880996873428266" height="50.880996873428266" width="213.1584412271571" id="textblock"><g><svg viewBox="0 0 213.1584412271571 50.880996873428266" height="50.880996873428266" width="213.1584412271571"><g transform="matrix(1,0,0,1,0,0)"><svg width="213.1584412271571" viewBox="3.78 -31.95 173.10999999999999 41.33" height="50.880996873428266" data-palette-color="#fffff5"><path d="M14.48 0L6.58 0 6.58-3.5 14.33-3.5Q18.57-3.5 20.71-5.81 22.85-8.13 22.85-12.43L22.85-12.43 22.85-19.55Q22.85-23.88 20.71-26.18 18.57-28.48 14.33-28.48L14.33-28.48 6.55-28.48 6.55-31.95 14.48-31.95Q20.68-31.95 23.85-28.76 27.03-25.58 27.03-19.58L27.03-19.58 27.03-12.4Q27.03-6.43 23.85-3.21 20.68 0 14.48 0L14.48 0ZM7.88 0L3.78 0 3.78-31.95 7.88-31.95 7.88 0ZM43.12 0.55L43.12 0.55Q37.55 0.55 34.72-2.18 31.9-4.9 31.9-9.98L31.9-9.98 31.9-14.33Q31.9-19.48 34.52-22.26 37.15-25.05 42.2-25.05L42.2-25.05Q45.6-25.05 47.87-23.79 50.15-22.53 51.3-20.2 52.45-17.88 52.45-14.65L52.45-14.65 52.45-13.75Q52.45-12.95 52.39-12.15 52.32-11.35 52.22-10.58L52.22-10.58 48.5-10.58Q48.55-11.78 48.56-12.85 48.57-13.93 48.57-14.83L48.57-14.83Q48.57-17.05 47.86-18.59 47.15-20.13 45.73-20.94 44.32-21.75 42.2-21.75L42.2-21.75Q39.05-21.75 37.47-19.93 35.9-18.1 35.9-14.7L35.9-14.7 35.9-12.38 35.92-11.88 35.92-9.55Q35.92-8.03 36.37-6.8 36.82-5.58 37.79-4.69 38.75-3.8 40.23-3.34 41.72-2.88 43.77-2.88L43.77-2.88Q46.15-2.88 48.2-3.5 50.25-4.13 52.05-5.2L52.05-5.2 51.67-1.7Q50.05-0.68 47.9-0.06 45.75 0.55 43.12 0.55ZM51.37-10.58L34.02-10.58 34.02-13.63 51.37-13.63 51.37-10.58ZM66.59-2.78L67.2-2.78 73.95-24.4 78.15-24.4 70.22 0 63.57 0 55.65-24.4 59.84-24.4 66.59-2.78ZM90.17 0.55L90.17 0.55Q87.22 0.55 85.02-0.09 82.82-0.73 81.37-1.48L81.37-1.48 80.99-5.23Q82.82-4.28 85.01-3.58 87.19-2.88 89.97-2.88L89.97-2.88Q92.79-2.88 94.22-3.78 95.64-4.67 95.64-6.45L95.64-6.45 95.64-6.73Q95.64-7.88 95.11-8.63 94.57-9.38 93.17-9.95 91.77-10.53 89.19-11.1L89.19-11.1Q86.12-11.78 84.34-12.69 82.57-13.6 81.81-14.95 81.04-16.3 81.04-18.25L81.04-18.25 81.04-18.48Q81.04-21.68 83.27-23.33 85.49-24.98 89.97-24.98L89.97-24.98Q92.84-24.98 94.96-24.33 97.07-23.68 98.42-22.88L98.42-22.88 98.79-19.45Q97.17-20.4 95.07-21.03 92.97-21.65 90.34-21.65L90.34-21.65Q88.44-21.65 87.27-21.26 86.09-20.88 85.57-20.16 85.04-19.45 85.04-18.45L85.04-18.45 85.04-18.25Q85.04-17.15 85.57-16.39 86.09-15.63 87.46-15.06 88.82-14.5 91.24-13.98L91.24-13.98Q94.37-13.35 96.21-12.48 98.04-11.6 98.84-10.26 99.64-8.93 99.64-6.83L99.64-6.83 99.64-6.4Q99.64-2.95 97.24-1.2 94.84 0.55 90.17 0.55ZM109.22-31.95L109.22 0 105.07 0 105.07-31.95 109.22-31.95ZM107.29 0L107.29-3.53 124.14-3.53 124.14 0 107.29 0ZM138.64 0.63L138.64 0.63Q133.39 0.63 130.68-2.21 127.96-5.05 127.96-10.38L127.96-10.38 127.96-14.1Q127.96-19.4 130.69-22.23 133.41-25.05 138.64-25.05L138.64-25.05Q143.89-25.05 146.6-22.23 149.31-19.4 149.31-14.1L149.31-14.1 149.31-10.38Q149.31-5.05 146.6-2.21 143.89 0.63 138.64 0.63ZM138.64-2.68L138.64-2.68Q141.89-2.68 143.58-4.6 145.26-6.53 145.26-10.15L145.26-10.15 145.26-14.33Q145.26-17.93 143.58-19.84 141.89-21.75 138.64-21.75L138.64-21.75Q135.41-21.75 133.71-19.84 132.01-17.93 132.01-14.33L132.01-14.33 132.01-10.15Q132.01-6.53 133.71-4.6 135.41-2.68 138.64-2.68ZM164.44-7.3L164.44-7.3Q159.46-7.3 156.8-9.47 154.14-11.65 154.14-15.7L154.14-15.7 154.14-16.32Q154.14-18.85 155.17-20.73 156.21-22.6 158.49-23.66 160.76-24.73 164.44-24.83L164.44-24.83 176.89-25.23 176.89-22.03 169.54-22.28 169.51-22.1Q171.24-21.75 172.34-20.9 173.44-20.05 173.97-18.78 174.51-17.5 174.51-15.8L174.51-15.8 174.51-15.25Q174.51-11.38 171.96-9.34 169.41-7.3 164.44-7.3ZM164.26 6.15L164.26 6.15 164.84 6.15Q167.09 6.15 168.7 5.81 170.31 5.48 171.19 4.75 172.06 4.03 172.06 2.83L172.06 2.83 172.06 2.73Q172.06 1.33 171.05 0.59 170.04-0.15 167.59-0.38L167.59-0.38 160.69-1 161.84-1.05Q160.44-0.85 159.37-0.4 158.31 0.05 157.71 0.79 157.11 1.53 157.11 2.63L157.11 2.63 157.11 2.68Q157.11 3.95 157.99 4.73 158.86 5.5 160.46 5.83 162.06 6.15 164.26 6.15ZM164.76 9.38L164.04 9.38Q160.74 9.38 158.35 8.81 155.96 8.25 154.65 6.99 153.34 5.73 153.34 3.6L153.34 3.6 153.34 3.5Q153.34 2 154.05 1 154.76 0 155.97-0.58 157.19-1.15 158.69-1.35L158.69-1.35 158.66-1.5Q156.61-1.85 155.64-2.71 154.66-3.58 154.66-4.95L154.66-4.95 154.66-4.98Q154.66-5.93 155.1-6.6 155.54-7.28 156.42-7.68 157.31-8.08 158.69-8.18L158.69-8.18 158.69-8.68 163.34-7.5 161.44-7.55Q159.74-7.53 159.09-7.14 158.44-6.75 158.44-5.98L158.44-5.98 158.44-5.95Q158.44-5.13 159.36-4.7 160.29-4.28 162.51-4.03L162.51-4.03 168.44-3.43Q172.31-3.03 174.09-1.56 175.86-0.1 175.86 2.75L175.86 2.75 175.86 2.88Q175.86 5.15 174.51 6.6 173.16 8.05 170.69 8.71 168.21 9.38 164.76 9.38L164.76 9.38ZM164.39-10.3L164.39-10.3Q166.49-10.3 167.87-10.91 169.26-11.53 169.97-12.76 170.69-14 170.69-15.8L170.69-15.8 170.69-16.4Q170.69-18.15 170-19.38 169.31-20.6 167.94-21.24 166.56-21.88 164.49-21.88L164.49-21.88 164.34-21.88Q162.09-21.88 160.67-21.19 159.26-20.5 158.62-19.26 157.99-18.03 157.99-16.38L157.99-16.38 157.99-15.8Q157.99-14 158.7-12.78 159.41-11.55 160.84-10.93 162.26-10.3 164.39-10.3Z" opacity="1" transform="matrix(1,0,0,1,0,0)" fill="#ffffff" class="wordmark-text-0" data-fill-palette-color="quaternary" id="text-0"></path></svg></g></svg></g></svg></g></svg></g><g transform="matrix(1,0,0,1,51.68796207764716,0)"><svg viewBox="0 0 109.7825170718628 70.31753767907787" height="70.31753767907787" width="109.7825170718628"><g><svg xmlns="http://www.w3.org/2000/svg" xmlns:xlink="http://www.w3.org/1999/xlink" version="1.1" x="0" y="0" viewBox="220.5 20.8 92.89374999999995 59.5" enable-background="new 216.8 0 100 100" xml:space="preserve" height="70.31753767907787" width="109.7825170718628" class="icon-icon-0" data-fill-palette-color="quaternary" id="icon-0"><g fill="#fffff5" data-fill-palette-color="quaternary"><path d="M285.6 67.4C285.6 64.4 283.3 63 280.4 63H264.5L257.8 44.6C256.8 41.4 253.8 39 250.2 39 248.9 39 247.7 39.3 246.6 39.9 232.1 47.2 223.7 60.6 220.5 80.3H239.5C240 72 241.5 62.3 248.3 56.5L256.1 68.2C257 69.9 258.8 71.2 260.8 71.2H280.4C283.4 71.2 285.6 70.4 285.6 67.4" fill="#ffffff" data-fill-palette-color="quaternary"></path></g><path d="M290.2 76.3C289.8 75.5 287.9 72.3 284 72.3 279.6 72.3 277.8 76.4 277.7 76.5 277.6 76.8 277.6 77.2 277.8 77.4 278 77.7 278.3 77.9 278.6 77.9H289.3C289.9 77.9 290.3 77.5 290.3 76.9 290.4 76.7 290.4 76.4 290.2 76.3" fill="#ffffff" data-fill-palette-color="quaternary"></path><path d="M311.2 28.5C309.4 27.7 307.4 28.6 306.6 30.4L291.5 65.8C290.7 67.6 291.6 69.6 293.4 70.4 293.8 70.6 294.3 70.7 294.8 70.7 296.2 70.7 297.5 69.9 298 68.6L300.7 62.2 305.8 72.8H298.7C297.3 72.8 296.2 73.9 296.2 75.3S297.3 77.8 298.7 77.8H309.8C310.7 77.8 311.5 77.4 311.9 76.6 312.4 75.9 312.4 75 312 74.2L303.4 56 313.1 33.1C313.9 31.3 313 29.3 311.2 28.5" fill="#ffffff" data-fill-palette-color="quaternary"></path><path fill="#ffffff" d="M264 20.8C261.5 20.8 259.2 21.7 257.5 23.2 256.6 21.7 255 20.8 253.1 20.8 250.2 20.8 247.9 23.1 247.9 26S250.2 31.2 253.1 31.2C253.4 31.2 253.7 31.2 254 31.1 254.2 36.5 258.6 40.7 264 40.7 269.5 40.7 274 36.2 274 30.7S269.5 20.8 264 20.8" data-fill-palette-color="quaternary"></path></svg></g></svg></g><g></g></svg></g></svg></g></svg></g></svg></g><defs></defs></svg><rect width="342.85155851775386" height="342.85155851775386" fill="none" stroke="none" visibility="hidden"></rect></g></svg></g></svg>